{
  "accessors": [
    {
      "bufferView": 2,
      "componentType": 5126,
      "count": 433,
      "max": [
        -0.8202469348907471,
        0.07225949317216873,
        1.0605758428573608
      ],
      "min": [
        -0.9678172469139099,
        -0.16880200803279877,
        1.0363986492156982
      ],
      "type": "VEC3"
    },
    {
      "bufferView": 2,
      "byteOffset": 5196,
      "componentType": 5126,
      "count": 433,
      "max": [
        0.9987307786941528,
        0.9756380319595337,
        1.0
      ],
      "min": [
        -0.9987307190895081,
        -1.0,
        -1.0
      ],
      "type": "VEC3"
    },
    {
      "bufferView": 1,
      "componentType": 5126,
      "count": 433,
      "max": [
        0.9857511520385742,
        0.9998297691345215
      ],
      "min": [
        0.0001701902801869437,
        0.00017017126083374023
      ],
      "type": "VEC2"
    },
    {
      "bufferView": 0,
      "componentType": 5125,
      "count": 2058,
      "type": "SCALAR"
    },
    {
      "bufferView": 2,
      "byteOffset": 10392,
      "componentType": 5126,
      "count": 10642,
      "max": [
        0.7007089853286743,
        0.9157490134239197,
        2.7762300968170166
      ],
      "min": [
        -1.1661080121994019,
        -0.00511557050049305,
        0.7222189903259277
      ],
      "type": "VEC3"
    },
    {
      "bufferView": 2,
      "byteOffset": 138096,
      "componentType": 5126,
      "count": 10642,
      "max": [
        1.0,
        1.0,
        1.0
      ],
      "min": [
        -1.0,
        -1.0,
        -1.0
      ],
      "type": "VEC3"
    },
    {
      "bufferView": 1,
      "byteOffset": 3464,
      "componentType": 5126,
      "count": 10642,
      "max": [
        0.9261000156402588,
        0.9305999875068665
      ],
      "min": [
        0.00039999998989515007,
        0.5846999883651733
      ],
      "type": "VEC2"
    },
    {
      "bufferView": 0,
      "byteOffset": 8232,
      "componentType": 5125,
      "count": 47136,
      "type": "SCALAR"
    },
    {
      "bufferView": 2,
      "byteOffset": 265800,
      "componentType": 5126,
      "count": 80,
      "max": [
        0.5298010110855103,
        0.7599999904632568,
        3.119225025177002
      ],
      "min": [
        -0.9951990246772766,
        0.7099999785423279,
        0.3792249858379364
      ],
      "type": "VEC3"
    },
    {
      "bufferView": 2,
      "byteOffset": 266760,
      "componentType": 5126,
      "count": 80,
      "max": [
        1.0,
        1.0,
        1.0
      ],
      "min": [
        -1.0,
        -1.0,
        -1.0
      ],
      "type": "VEC3"
    },
    {
      "bufferView": 1,
      "byteOffset": 88600,
      "componentType": 5126,
      "count": 80,
      "max": [
        0.9858999848365784,
        0.583899974822998
      ],
      "min": [
        0.00039999998989515007,
        0.00039999998989515007
      ],
      "type": "VEC2"
    },
    {
      "bufferView": 0,
      "byteOffset": 196776,
      "componentType": 5125,
      "count": 186,
      "type": "SCALAR"
    },
    {
      "bufferView": 2,
      "byteOffset": 267720,
      "componentType": 5126,
      "count": 984,
      "max": [
        0.6952300071716309,
        0.9125000238418579,
        3.0792250633239746
      ],
      "min": [
        -1.1635260581970215,
        0.6841989755630493,
        0.3792249858379364
      ],
      "type": "VEC3"
    },
    {
      "bufferView": 2,
      "byteOffset": 279528,
      "componentType": 5126,
      "count": 984,
      "max": [
        1.0,
        1.0,
        1.0
      ],
      "min": [
        -1.0,
        -1.0,
        -1.0
      ],
      "type": "VEC3"
    },
    {
      "bufferView": 1,
      "byteOffset": 89240,
      "componentType": 5126,
      "count": 984,
      "max": [
        0.9995999932289124,
        0.8770999908447266
      ],
      "min": [
        0.00039999998989515007,
        0.00039999998989515007
      ],
      "type": "VEC2"
    },
    {
      "bufferView": 0,
      "byteOffset": 197520,
      "componentType": 5125,
      "count": 4728,
      "type": "SCALAR"
    },
    {
      "bufferView": 2,
      "byteOffset": 291336,
      "componentType": 5126,
      "count": 4,
      "max": [
        0.48980098962783813,
        0.7599999904632568,
        1.7492250204086304
      ],
      "min": [
        -0.9551990032196045,
        0.7599999904632568,
        0.4192250072956085
      ],
      "type": "VEC3"
    },
    {
      "bufferView": 2,
      "byteOffset": 291384,
      "componentType": 5126,
      "count": 4,
      "max": [
        0.0,
        1.0,
        0.0
      ],
      "min": [
        0.0,
        1.0,
        0.0
      ],
      "type": "VEC3"
    },
    {
      "bufferView": 1,
      "byteOffset": 97112,
      "componentType": 5126,
      "count": 4,
      "max": [
        0.9550999999046326,
        0.5393999814987183
      ],
      "min": [
        0.5,
        0.04490000009536743
      ],
      "type": "VEC2"
    },
    {
      "bufferView": 0,
      "byteOffset": 216432,
      "componentType": 5125,
      "count": 6,
      "type": "SCALAR"
    },
    {
      "bufferView": 2,
      "byteOffset": 291432,
      "componentType": 5126,
      "count": 4,
      "max": [
        0.48980098962783813,
        0.7599999904632568,
        3.0792250633239746
      ],
      "min": [
        -0.9551990032196045,
        0.7599999904632568,
        1.7492250204086304
      ],
      "type": "VEC3"
    },
    {
      "bufferView": 2,
      "byteOffset": 291480,
      "componentType": 5126,
      "count": 4,
      "max": [
        0.0,
        1.0,
        0.0
      ],
      "min": [
        0.0,
        1.0,
        0.0
      ],
      "type": "VEC3"
    },
    {
      "bufferView": 1,
      "byteOffset": 97144,
      "componentType": 5126,
      "count": 4,
      "max": [
        0.5,
        0.5393999814987183
      ],
      "min": [
        0.04490000009536743,
        0.04490000009536743
      ],
      "type": "VEC2"
    },
    {
      "bufferView": 0,
      "byteOffset": 216456,
      "componentType": 5125,
      "count": 6,
      "type": "SCALAR"
    },
    {
      "bufferView": 2,
      "byteOffset": 291528,
      "componentType": 5126,
      "count": 242,
      "max": [
        1.0000003576278687,
        1.0,
        1.0
      ],
      "min": [
        -1.0000001192092896,
        -1.0000004768371582,
        -1.0
      ],
      "type": "VEC3"
    },
    {
      "bufferView": 2,
      "byteOffset": 294432,
      "componentType": 5126,
      "count": 242,
      "max": [
        1.0,
        1.0,
        1.0
      ],
      "min": [
        -1.0,
        -1.0,
        -1.0
      ],
      "type": "VEC3"
    },
    {
      "bufferView": 0,
      "byteOffset": 216480,
      "componentType": 5125,
      "count": 1440,
      "type": "SCALAR"
    },
    {
      "bufferView": 2,
      "byteOffset": 297336,
      "componentType": 5126,
      "count": 433,
      "max": [
        -0.8202469348907471,
        0.07225949317216873,
        1.0605758428573608
      ],
      "min": [
        -0.9678172469139099,
        -0.16880200803279877,
        1.0363986492156982
      ],
      "type": "VEC3"
    },
    {
      "bufferView": 2,
      "byteOffset": 302532,
      "componentType": 5126,
      "count": 433,
      "max": [
        0.9987307786941528,
        0.9756380319595337,
        1.0
      ],
      "min": [
        -0.9987307190895081,
        -1.0,
        -1.0
      ],
      "type": "VEC3"
    },
    {
      "bufferView": 1,
      "byteOffset": 97176,
      "componentType": 5126,
      "count": 433,
      "max": [
        0.9857511520385742,
        0.9998297691345215
      ],
      "min": [
        0.0001701902801869437,
        0.00017017126083374023
      ],
      "type": "VEC2"
    },
    {
      "bufferView": 0,
      "byteOffset": 222240,
      "componentType": 5125,
      "count": 2058,
      "type": "SCALAR"
    },
    {
      "bufferView": 3,
      "componentType": 5126,
      "count": 169,
      "max": [
        2.4000000953674316
      ],
      "min": [
        0.0
      ],
      "type": "SCALAR"
    },
    {
      "bufferView": 4,
      "componentType": 5126,
      "count": 169,
      "max": [
        18.144235610961914,
        70.98851013183594,
        117.55997467041016
      ],
      "min": [
        18.144235610961914,
        70.98851013183594,
        41.70529556274414
      ],
      "type": "VEC3"
    },
    {
      "bufferView": 3,
      "byteOffset": 676,
      "componentType": 5126,
      "count": 169,
      "max": [
        2.4000000953674316
      ],
      "min": [
        0.0
      ],
      "type": "SCALAR"
    },
    {
      "bufferView": 4,
      "byteOffset": 2028,
      "componentType": 5126,
      "count": 169,
      "max": [
        75.64347076416016,
        107.67215728759766,
        340.2138977050781
      ],
      "min": [
        -74.40975952148438,
        77.99899291992188,
        20.49738121032715
      ],
      "type": "VEC3"
    },
    {
      "bufferView": 3,
      "byteOffset": 1352,
      "componentType": 5126,
      "count": 78,
      "max": [
        2.4000000953674316
      ],
      "min": [
        0.0
      ],
      "type": "SCALAR"
    },
    {
      "bufferView": 4,
      "byteOffset": 4056,
      "componentType": 5126,
      "count": 78,
      "max": [
        164.7701416015625,
        70.98851013183594,
        505.5428161621094
      ],
      "min": [
        164.7701416015625,
        70.98851013183594,
        439.3340759277344
      ],
      "type": "VEC3"
    }
  ],
  "animations": [
    {
      "channels": [
        {
          "sampler": 0,
          "target": {
            "node": 5,
            "path": "translation"
          }
        },
        {
          "sampler": 1,
          "target": {
            "node": 13,
            "path": "translation"
          }
        },
        {
          "sampler": 2,
          "target": {
            "node": 15,
            "path": "translation"
          }
        }
      ],
      "name": "Take 001",
      "samplers": [
        {
          "input": 31,
          "interpolation": "LINEAR",
          "output": 32
        },
        {
          "input": 33,
          "interpolation": "LINEAR",
          "output": 34
        },
        {
          "input": 35,
          "interpolation": "LINEAR",
          "output": 36
        }
      ]
    }
  ],
  "asset": {
    "extras": {
      "author": "Sebastian Paez (https://sketchfab.com/TINOPAEZ)",
      "license": "CC-BY-4.0 (http://creativecommons.org/licenses/by/4.0/)",
      "source": "https://sketchfab.com/3d-models/ping-pong-43b040d1a4dd42ab972a0bea2e51c321",
      "title": "PING PONG"
    },
    "generator": "Sketchfab-16.12.0",
    "version": "2.0"
  },
  "bufferViews": [
    {
      "buffer": 0,
      "byteLength": 230472,
      "name": "floatBufferViews",
      "target": 34963
    },
    {
      "buffer": 0,
      "byteLength": 100640,
      "byteOffset": 230472,
      "byteStride": 8,
      "name": "floatBufferViews",
      "target": 34962
    },
    {
      "buffer": 0,
      "byteLength": 307728,
      "byteOffset": 331112,
      "byteStride": 12,
      "name": "floatBufferViews",
      "target": 34962
    },
    {
      "buffer": 0,
      "byteLength": 1664,
      "byteOffset": 638840,
      "name": "floatBufferViews"
    },
    {
      "buffer": 0,
      "byteLength": 4992,
      "byteOffset": 640504,
      "byteStride": 12,
      "name": "floatBufferViews"
    }
  ],
  "buffers": [
    {
      "byteLength": 645496,
      "uri": "scene.bin"
    }
  ],
  "materials": [
    {
      "doubleSided": true,
      "name": "Table_racket.P2",
      "pbrMetallicRoughness": {
        "baseColorFactor": [
          0.0,
          0.0121483,
          0.8,
          1.0
        ],
        "metallicFactor": 0.0,
        "roughnessFactor": 0.9962854203272983
      }
    },
    {
      "doubleSided": true,
      "name": "CIAN",
      "pbrMetallicRoughness": {
        "baseColorFactor": [
          0.048171824226889426,
          0.028426039504420787,
          0.17144110073282254,
          1.0
        ],
        "metallicFactor": 0.0,
        "roughnessFactor": 0.6
      }
    },
    {
      "doubleSided": true,
      "name": "Rosa",
      "pbrMetallicRoughness": {
        "baseColorFactor": [
          0.8879231178819663,
          0.052860647023180246,
          0.6653872982822717,
          1.0
        ],
        "metallicFactor": 0.0,
        "roughnessFactor": 0.6
      }
    },
    {
      "doubleSided": true,
      "name": "Table",
      "pbrMetallicRoughness": {
        "baseColorFactor": [
          0.64,
          0.64,
          0.64,
          1.0
        ],
        "metallicFactor": 0.0,
        "roughnessFactor": 0.9284458247200067
      }
    },
    {
      "doubleSided": true,
      "name": "AZUL",
      "pbrMetallicRoughness": {
        "baseColorFactor": [
          0.09758734714186229,
          0.08437621154414879,
          0.8879231178819663,
          1.0
        ],
        "metallicFactor": 0.0,
        "roughnessFactor": 0.6
      }
    },
    {
      "doubleSided": true,
      "name": "Purpura",
      "pbrMetallicRoughness": {
        "baseColorFactor": [
          0.048171824226889426,
          0.028426039504420787,
          0.17144110073282254,
          1.0
        ],
        "metallicFactor": 0.0,
        "roughnessFactor": 0.6
      }
    },
    {
      "doubleSided": true,
      "name": "Ball",
      "pbrMetallicRoughness": {
        "baseColorFactor": [
          1.0,
          0.792676066466701,
          0.0,
          1.0
        ],
        "metallicFactor": 0.0,
        "roughnessFactor": 0.9552786404500042
      }
    },
    {
      "doubleSided": true,
      "name": "pasted__Table_racket.P2",
      "pbrMetallicRoughness": {
        "baseColorFactor": [
          0.8879231178819663,
          0.052860647023180246,
          0.6653872982822717,
          1.0
        ],
        "metallicFactor": 0.0,
        "roughnessFactor": 0.9962854203272983
      }
    }
  ],
  "meshes": [
    {
      "name": "Player1_Table_racket.P2_0",
      "primitives": [
        {
          "attributes": {
            "NORMAL": 1,
            "POSITION": 0,
            "TEXCOORD_0": 2
          },
          "indices": 3,
          "material": 0,
          "mode": 4
        }
      ]
    },
    {
      "name": "Table_Cube_CIAN_0",
      "primitives": [
        {
          "attributes": {
            "NORMAL": 5,
            "POSITION": 4,
            "TEXCOORD_0": 6
          },
          "indices": 7,
          "material": 1,
          "mode": 4
        }
      ]
    },
    {
      "name": "Table_Cube_Rosa_0",
      "primitives": [
        {
          "attributes": {
            "NORMAL": 9,
            "POSITION": 8,
            "TEXCOORD_0": 10
          },
          "indices": 11,
          "material": 2,
          "mode": 4
        }
      ]
    },
    {
      "name": "Table_Cube_Table_0",
      "primitives": [
        {
          "attributes": {
            "NORMAL": 13,
            "POSITION": 12,
            "TEXCOORD_0": 14
          },
          "indices": 15,
          "material": 3,
          "mode": 4
        }
      ]
    },
    {
      "name": "Table_Cube_AZUL_0",
      "primitives": [
        {
          "attributes": {
            "NORMAL": 17,
            "POSITION": 16,
            "TEXCOORD_0": 18
          },
          "indices": 19,
          "material": 4,
          "mode": 4
        }
      ]
    },
    {
      "name": "Table_Cube_Purpura_0",
      "primitives": [
        {
          "attributes": {
            "NORMAL": 21,
            "POSITION": 20,
            "TEXCOORD_0": 22
          },
          "indices": 23,
          "material": 5,
          "mode": 4
        }
      ]
    },
    {
      "name": "Ball_Ball_0",
      "primitives": [
        {
          "attributes": {
            "NORMAL": 25,
            "POSITION": 24
          },
          "indices": 26,
          "material": 6,
          "mode": 4
        }
      ]
    },
    {
      "name": "RAQUETA_2_pasted__Table_racket.P2_0",
      "primitives": [
        {
          "attributes": {
            "NORMAL": 28,
            "POSITION": 27,
            "TEXCOORD_0": 29
          },
          "indices": 30,
          "material": 7,
          "mode": 4
        }
      ]
    }
  ],
  "nodes": [
    {
      "children": [
        1
      ],
      "matrix": [
        14.165372848510742,
        0.0,
        0.0,
        0.0,
        0.0,
        3.145344617763333e-15,
        -14.165372848510742,
        0.0,
        0.0,
        14.165372848510742,
        3.145344617763333e-15,
        0.0,
        0.0,
        0.0,
        0.0,
        1.0
      ],
      "name": "Sketchfab_model"
    },
    {
      "children": [
        2
      ],
      "matrix": [
        0.009999999776482582,
        0.0,
        0.0,
        0.0,
        0.0,
        0.0,
        0.009999999776482582,
        0.0,
        0.0,
        -0.009999999776482582,
        0.0,
        0.0,
        0.0,
        0.0,
        0.0,
        1.0
      ],
      "name": "a692b2eb1f5341e68d0582161c784f05.fbx"
    },
    {
      "children": [
        3
      ],
      "name": "Object_2"
    },
    {
      "children": [
        4
      ],
      "name": "RootNode"
    },
    {
      "children": [
        5,
        7,
        13,
        15
      ],
      "name": "Mesa_p",
      "scale": [
        0.07021957635879517,
        0.07021957635879517,
        0.07021957635879517
      ],
      "translation": [
        -8.289087295532227,
        2.576963186264038,
        -12.685844421386719
      ]
    },
    {
      "children": [
        6
      ],
      "name": "Player1",
      "rotation": [
        0.9913537502288818,
        0.0,
        0.0,
        -0.13121643662452698
      ],
      "scale": [
        99.99998474121094,
        99.99998474121094,
        99.99998474121094
      ],
      "translation": [
        18.144235610961914,
        70.98851013183594,
        81.89790344238281
      ]
    },
    {
      "mesh": 0,
      "name": "Player1_Table_racket.P2_0"
    },
    {
      "children": [
        8,
        9,
        10,
        11,
        12
      ],
      "name": "Table_Cube",
      "rotation": [
        8.146033536604591e-08,
        0.0,
        0.0,
        1.0
      ],
      "scale": [
        100.0,
        100.0,
        100.0
      ],
      "translation": [
        0.0,
        0.0,
        2.842170943040401e-14
      ]
    },
    {
      "mesh": 1,
      "name": "Table_Cube_CIAN_0"
    },
    {
      "mesh": 2,
      "name": "Table_Cube_Rosa_0"
    },
    {
      "mesh": 3,
      "name": "Table_Cube_Table_0"
    },
    {
      "mesh": 4,
      "name": "Table_Cube_AZUL_0"
    },
    {
      "mesh": 5,
      "name": "Table_Cube_Purpura_0"
    },
    {
      "children": [
        14
      ],
      "name": "Ball",
      "rotation": [
        -0.7071068286895752,
        0.0,
        0.0,
        0.7071067094802856
      ],
      "scale": [
        1.9999995231628418,
        1.9999995231628418,
        2.000000238418579
      ],
      "translation": [
        74.01567840576172,
        107.06888580322266,
        337.093017578125
      ]
    },
    {
      "mesh": 6,
      "name": "Ball_Ball_0"
    },
    {
      "children": [
        16
      ],
      "name": "RAQUETA_2",
      "rotation": [
        0.9913537502288818,
        0.0,
        0.0,
        -0.13121643662452698
      ],
      "scale": [
        99.99998474121094,
        99.99998474121094,
        99.99998474121094
      ],
      "translation": [
        164.7701416015625,
        70.98851013183594,
        441.66796875
      ]
    },
    {
      "mesh": 7,
      "name": "RAQUETA_2_pasted__Table_racket.P2_0"
    }
  ],
  "scene": 0,
  "scenes": [
    {
      "name": "Sketchfab_Scene",
      "nodes": [
        0
      ]
    }
  ]
}
